name D:\school\WTK\thesis\model\3dpredictsim\Results\test_WL_v2\Fal_s1_bCst__PF_none__ls135_k1000_ig24.mot
datacolumns 128
datarows 4
range 0.60367452 0.63989499
endheader
time	pelvis_tilt	pelvis_list	pelvis_rotation	pelvis_tx	pelvis_ty	pelvis_tz	hip_flexion_l	hip_adduction_l	hip_rotation_l	hip_flexion_r	hip_adduction_r	hip_rotation_r	knee_angle_l	knee_angle_r	ankle_angle_l	ankle_angle_r	subtalar_angle_l	subtalar_angle_r	tmt_angle_l	tmt_angle_r	mtp_angle_l	mtp_angle_r	lumbar_extension	lumbar_bending	lumbar_rotation	arm_flex_l	arm_add_l	arm_rot_l	arm_flex_r	arm_add_r	arm_rot_r	elbow_flex_l	elbow_flex_r	pro_sup_l	pro_sup_r	glut_med1_l/activation	glut_med2_l/activation	glut_med3_l/activation	glut_min1_l/activation	glut_min2_l/activation	glut_min3_l/activation	semimem_l/activation	semiten_l/activation	bifemlh_l/activation	bifemsh_l/activation	sar_l/activation	add_long_l/activation	add_brev_l/activation	add_mag1_l/activation	add_mag2_l/activation	add_mag3_l/activation	tfl_l/activation	pect_l/activation	grac_l/activation	glut_max1_l/activation	glut_max2_l/activation	glut_max3_l/activation	iliacus_l/activation	psoas_l/activation	quad_fem_l/activation	gem_l/activation	peri_l/activation	rect_fem_l/activation	vas_med_l/activation	vas_int_l/activation	vas_lat_l/activation	med_gas_l/activation	lat_gas_l/activation	soleus_l/activation	tib_post_l/activation	flex_dig_l/activation	flex_hal_l/activation	tib_ant_l/activation	per_brev_l/activation	per_long_l/activation	per_tert_l/activation	ext_dig_l/activation	ext_hal_l/activation	ercspn_l/activation	intobl_l/activation	extobl_l/activation	glut_med1_r/activation	glut_med2_r/activation	glut_med3_r/activation	glut_min1_r/activation	glut_min2_r/activation	glut_min3_r/activation	semimem_r/activation	semiten_r/activation	bifemlh_r/activation	bifemsh_r/activation	sar_r/activation	add_long_r/activation	add_brev_r/activation	add_mag1_r/activation	add_mag2_r/activation	add_mag3_r/activation	tfl_r/activation	pect_r/activation	grac_r/activation	glut_max1_r/activation	glut_max2_r/activation	glut_max3_r/activation	iliacus_r/activation	psoas_r/activation	quad_fem_r/activation	gem_r/activation	peri_r/activation	rect_fem_r/activation	vas_med_r/activation	vas_int_r/activation	vas_lat_r/activation	med_gas_r/activation	lat_gas_r/activation	soleus_r/activation	tib_post_r/activation	flex_dig_r/activation	flex_hal_r/activation	tib_ant_r/activation	per_brev_r/activation	per_long_r/activation	per_tert_r/activation	ext_dig_r/activation	ext_hal_r/activation	ercspn_r/activation	intobl_r/activation	extobl_r/activation	
          0.60367452	         -2.92835663	          3.64490315	         -6.89358989	          0.75459315	          0.90353863	          0.00401759	         34.53193792	          3.75778299	         -4.11042178	        -12.02481523	         -2.83143503	          6.45702175	        -17.42488774	        -18.33944191	          8.05357817	        -11.78697606	         -4.46558278	         11.56706296	          2.71899161	         27.38305694	         -0.09082581	         15.18258914	         -1.49879648	         -1.77628420	          2.29817891	        -10.03578637	        -13.95303175	          4.79858029	          5.53005748	        -13.45112215	         16.47139877	         17.00813607	         46.19567259	         86.51662706	         86.51662706	          0.07058249	          0.06006121	          0.05000001	          0.08370807	          0.06006128	          0.05000106	          0.22670267	          0.06006127	          0.14284251	          0.06006156	          0.05000033	          0.11683177	          0.19112813	          0.17239458	          0.14898204	          0.10060252	          0.05134515	          0.05000614	          0.13170465	          0.05000009	          0.05000003	          0.06092858	          0.07214705	          0.07214714	          0.54957091	          0.20504076	          0.05000058	          0.07214714	          0.05000012	          0.16446759	          0.15767297	          0.05777250	          0.06175381	          0.05000001	          0.05000002	          0.05000005	          0.05000009	          0.52909630	          0.22565748	          0.17434364	          0.41962255	          0.50927034	          0.29865903	          0.05000000	          0.11448520	          0.12085337	          0.15172121	          0.05320272	          0.05000002	          0.23863255	          0.15393688	          0.06381383	          0.05001643	          0.05000041	          0.05000010	          0.05000038	          0.06550174	          0.05458539	          0.08628802	          0.05267024	          0.05464572	          0.06233478	          0.25213392	          0.05000115	          0.05000037	          0.05000052	          0.05000042	          0.05000068	          0.33859781	          0.47319630	          0.05000002	          0.05000018	          0.06005248	          0.37764516	          0.17040206	          0.16844785	          0.15732205	          0.40412691	          0.49527284	          0.26352931	          0.39082337	          0.28887131	          0.35314913	          0.05000000	          0.05000002	          0.05000000	          0.05000002	          0.05000000	          0.05000005	          0.05000000	          0.07214704	          0.05408265	
          0.61574801	         -2.93017651	          3.75124992	         -7.18844333	          0.77342481	          0.90184764	          0.00356942	         34.00772801	          4.08298362	         -3.95757554	        -12.70905163	         -3.30788589	          6.22702409	        -18.33148348	        -18.95310010	          7.69076524	        -12.34152445	         -4.85654613	         12.59360382	          2.06713767	         26.07757191	         -0.09180293	         16.40995775	         -1.24106954	         -1.96978997	          2.40833675	        -11.19467873	        -13.93673912	          4.83711049	          5.29566280	        -13.45951161	         16.86468270	         16.57652924	         47.42153759	         86.51662706	         86.51662706	          0.15326955	          0.05000001	          0.23885281	          0.06968560	          0.05000005	          0.05000002	          0.19023262	          0.05000004	          0.12369683	          0.05000027	          0.05000049	          0.09726058	          0.19915037	          0.18449631	          0.15859120	          0.13624633	          0.05000008	          0.06006170	          0.10964201	          0.05000004	          0.12095442	          0.12552836	          0.06006125	          0.06006132	          0.45750881	          0.17069310	          0.22568597	          0.06006132	          0.07675557	          0.13691664	          0.13126021	          0.05464445	          0.05674167	          0.05572166	          0.05373479	          0.05000057	          0.05000035	          0.44046401	          0.24575052	          0.14513824	          0.34932892	          0.49723068	          0.35648080	          0.05000001	          0.09530711	          0.10060845	          0.18434896	          0.05000005	          0.05000005	          0.19865774	          0.12814997	          0.05312400	          0.05000024	          0.05000012	          0.05000012	          0.05000003	          0.05452942	          0.11913698	          0.07183343	          0.06006126	          0.06006107	          0.06006120	          0.20989739	          0.07412539	          0.05000092	          0.05000124	          0.05000078	          0.05000075	          0.30624507	          0.47041945	          0.05580174	          0.05000033	          0.05000001	          0.31438341	          0.17448238	          0.16869812	          0.16067683	          0.33642907	          0.41230655	          0.22717357	          0.32535408	          0.24048067	          0.29399089	          0.05000001	          0.05000002	          0.05000008	          0.05000001	          0.05000001	          0.05000006	          0.05961764	          0.06006123	          0.06006123	
          0.62782150	         -2.92982890	          3.83944815	         -7.44746601	          0.79244842	          0.90016900	          0.00310925	         33.33098203	          4.35583313	         -3.79047412	        -13.29014711	         -3.75379984	          5.99067967	        -19.17417321	        -19.74865703	          7.16990106	        -12.74447727	         -5.23434682	         13.53078103	          1.11029363	         24.30408994	         -0.06210881	         17.71788167	         -0.97915516	         -2.14983065	          2.50714139	        -12.31484847	        -13.90952421	          4.94512833	          5.00547813	        -13.47292926	         17.20757208	         16.10462840	         48.56091394	         86.51662706	         86.51662706	          0.26182978	          0.30463976	          0.38874933	          0.18313986	          0.23108344	          0.20830102	          0.15836554	          0.08707657	          0.10297559	          0.08654486	          0.05000016	          0.08096785	          0.16578943	          0.15359020	          0.13202573	          0.16186884	          0.05000007	          0.05000048	          0.09127621	          0.21930166	          0.19460472	          0.16876739	          0.05000002	          0.05000007	          0.38086865	          0.14209926	          0.18787995	          0.05000007	          0.06389777	          0.11398091	          0.10927236	          0.05000000	          0.05000001	          0.05000000	          0.05000001	          0.05000003	          0.05000004	          0.53245289	          0.31884257	          0.17539312	          0.57343727	          0.51471469	          0.29676446	          0.07083856	          0.11115386	          0.08375489	          0.22862534	          0.05000009	          0.05000002	          0.36219794	          0.10668287	          0.05000067	          0.05000070	          0.05000004	          0.05000003	          0.05767543	          0.07215575	          0.09917962	          0.05980018	          0.05000008	          0.05000012	          0.05000010	          0.17473633	          0.06170834	          0.05000010	          0.05000025	          0.05000013	          0.05000004	          0.34038739	          0.52532600	          0.05000000	          0.05000010	          0.05688060	          0.26171918	          0.19735315	          0.19328678	          0.18877095	          0.28007169	          0.34323846	          0.18911828	          0.27085197	          0.20019624	          0.24474262	          0.05000003	          0.06769281	          0.07520351	          0.05000052	          0.08566532	          0.05000021	          0.06893115	          0.05000000	          0.05000000	
          0.63989499	         -2.92859757	          3.89805613	         -7.66198121	          0.81140909	          0.89865963	          0.00261389	         32.69813193	          4.60453102	         -3.64136401	        -13.75363570	         -4.15903917	          5.77164343	        -20.02929654	        -20.69669739	          6.30032441	        -13.00283576	         -5.60584200	         14.39248157	          0.03710480	         22.00140767	         -0.10810917	         19.08185978	         -0.73764485	         -2.30904240	          2.59564086	        -13.34266393	        -13.86950893	          5.11562390	          4.69657540	        -13.49294633	         17.51460038	         15.58422516	         49.58420452	         86.51662706	         86.51662706	          0.33797168	          0.38339365	          0.48453060	          0.18792507	          0.19237335	          0.30549341	          0.13183673	          0.08157305	          0.08572554	          0.07204719	          0.05000009	          0.06740445	          0.13801727	          0.19097484	          0.19785666	          0.17968318	          0.05000006	          0.05169457	          0.09805291	          0.26876552	          0.22784555	          0.19737491	          0.05000004	          0.05000003	          0.31706695	          0.11829535	          0.27982446	          0.05000000	          0.16589720	          0.19058189	          0.18336507	          0.05000000	          0.05000002	          0.05000000	          0.05000000	          0.05000008	          0.05000005	          0.59998563	          0.26543122	          0.14601190	          0.47737759	          0.54000030	          0.35063053	          0.09070560	          0.09253377	          0.06972458	          0.24382543	          0.05000018	          0.05000007	          0.30152391	          0.08881178	          0.05000022	          0.05000048	          0.05000008	          0.05000007	          0.05000005	          0.06006857	          0.12729739	          0.05000018	          0.05000053	          0.05000076	          0.05000038	          0.14546517	          0.05137166	          0.05000037	          0.05000146	          0.05000091	          0.05000044	          0.28336695	          0.54262563	          0.05000021	          0.05000035	          0.05000002	          0.21787694	          0.19289317	          0.18567537	          0.18707823	          0.23315510	          0.28574040	          0.15743788	          0.22547984	          0.16666012	          0.20374425	          0.05987343	          0.07000394	          0.08860372	          0.05000026	          0.12922256	          0.05000094	          0.08594937	          0.05000000	          0.05000000	
